:SAMPLES-PER-SECOND 30
:FRAME-RANGE 1-668
:FULLY-SPECIFIED
:DEGREES
606
root  -3.5481 39.6745 -36.9005 -176.679 -29.3915 177.803
RightUpLeg  -20.5698 -16.7747 -3.25861
RightLeg  12.9144 -1.11577 -0.0480696
RightFoot  0.160609 -1.18248 11.7142
RightToes  -1.33073e-015 0 -3.6325e-017
Spine  5.14825 -0.557998 -3.46409
Spine1  1.16332 -0.160943 -2.34842
HEad  6.68574 8.91909 -2.28784
LeftShoulder1  1.57419 -0.609359 -32.2258
LeftArm  -8.01841 -13.8397 -25.9614
LeftForeArm  9.86853 -4.29643 -15.7788
LeftHand  0.123738 -0.805604 -2.2509
RightShoulder  9.80375 13.2149 51.3289
RightArm  6.57147 5.57259 13.3692
RightForeArm  19.838 -0.469948 16.7717
RightHand  0.135509 4.81699 1.24167
LeftUpLeg  0.369233 8.88471 -0.817287
LeftLeg  9.80819 14.6265 -1.38999
LeftFoot  -11.8223 0.0529275 -4.26669
LeftToes  -2.73175e-012 1.00346e-010 -4.28452e-011
607
root  -3.81345 39.5896 -37.907 -176.354 -28.9024 177.73
RightUpLeg  -17.6154 -8.16471 -6.53683
RightLeg  -1.96722 -13.2908 4.36116
RightFoot  1.56594 -1.12524 10.0186
RightToes  -1.33073e-015 0 -3.6325e-017
Spine  5.03075 -0.736638 -3.74279
Spine1  0.954575 -0.427492 -1.56457
HEad  6.11981 8.21066 -2.21787
LeftShoulder1  1.59103 -0.747935 -31.3741
LeftArm  -8.88422 -16.469 -25.188
LeftForeArm  9.87749 -5.26582 -15.3921
LeftHand  0.108643 -0.870322 -1.9391
RightShoulder  9.6523 12.9235 51.4325
RightArm  6.68795 4.81759 13.2247
RightForeArm  19.938 -1.0563 16.8771
RightHand  0.120142 4.71224 1.0848
LeftUpLeg  2.05274 8.96252 -0.390817
LeftLeg  9.27059 14.7751 -1.23421
LeftFoot  -12.77 0.00872677 -5.43116
LeftToes  -2.73175e-012 1.00346e-010 -4.28452e-011
608
root  -4.07827 39.2937 -39.1087 -176.223 -28.716 176.985
RightUpLeg  -17.7514 -7.79288 -6.71481
RightLeg  -7.13538 -17.6292 6.17545
RightFoot  -1.233 -1.04026 11.6292
RightToes  -1.33073e-015 0 -3.6325e-017
Spine  4.81442 -1.01048 -4.8678
Spine1  0.824476 -0.700657 -1.08237
HEad  5.50189 7.31852 -2.47426
LeftShoulder1  1.61787 -0.90693 -30.6301
LeftArm  -7.48372 -18.2334 -24.5601
LeftForeArm  8.27754 -7.12326 -14.9049
LeftHand  0.08789 -0.881243 -1.54807
RightShoulder  9.4935 12.6088 51.5733
RightArm  6.769 3.99084 13.1418
RightForeArm  19.9724 -1.90216 17.0001
RightHand  0.134839 4.63124 1.26879
LeftUpLeg  3.62903 9.11649 -0.316761
LeftLeg  10.8589 14.3024 -0.521706
LeftFoot  -14.9602 -0.132551 -7.02377
LeftToes  -2.73175e-012 1.00346e-010 -4.28452e-011
609
root  -4.33503 39.1229 -40.3054 -176.623 -27.8061 177.196
RightUpLeg  -17.7098 -6.62461 -5.48131
RightLeg  -7.86218 -19.2167 6.32762
RightFoot  -0.573258 -1.05983 11.1704
RightToes  -1.33073e-015 0 -3.6325e-017
Spine  5.0058 -0.824262 -4.25407
Spine1  0.911594 -0.674995 -0.488164
HEad  4.85942 6.27966 -3.10947
LeftShoulder1  1.62622 -1.00354 -30.0232
LeftArm  -6.39679 -19.3826 -24.1625
LeftForeArm  7.66829 -8.47196 -14.4266
LeftHand  0.0869453 -1.05666 -1.4709
RightShoulder  9.40924 12.4062 51.7633
RightArm  7.10051 3.12858 13.1092
RightForeArm  19.792 -3.02773 17.1719
RightHand  0.169694 4.594 1.68072
LeftUpLeg  5.92284 9.64834 0.827727
LeftLeg  11.2621 13.969 -0.381783
LeftFoot  -16.4388 -0.299214 -8.91717
LeftToes  -2.73175e-012 1.00346e-010 -4.28452e-011
610
root  -4.5895 39.0903 -41.5147 -177.583 -26.4714 178.497
RightUpLeg  -17.8388 -5.20125 -3.0252
RightLeg  -5.28686 -17.2262 5.31759
RightFoot  5.082 -0.368956 2.79685
RightToes  -1.33073e-015 0 -3.6325e-017
Spine  5.59737 -0.500928 -1.73925
Spine1  1.32118 -0.621217 0.00354201
HEad  4.09028 5.38796 -3.95125
LeftShoulder1  1.58657 -0.956426 -29.5068
LeftArm  -1.43116 -19.3971 -23.9434
LeftForeArm  3.66419 -11.2214 -13.4831
LeftHand  0.0771711 -1.02816 -1.30255
RightShoulder  9.37436 12.2273 52.1491
RightArm  8.04798 2.56811 13.0508
RightForeArm  19.3347 -4.19325 17.3971
RightHand  0.222873 4.62737 2.28841
LeftUpLeg  8.58192 10.8899 3.12235
LeftLeg  11.1616 13.168 -0.199209
LeftFoot  -16.8214 -0.441886 -11.304
LeftToes  -2.73175e-012 1.00346e-010 -4.28452e-011
611
root  -4.84868 38.9815 -42.8642 -179.194 -25.3335 179.943
RightUpLeg  -18.8425 -3.84372 -0.964161
RightLeg  1.16343 -16.4655 3.25069
RightFoot  10.3796 0.317161 -1.27953
RightToes  -1.33073e-015 0 -3.6325e-017
Spine  6.79066 -0.533959 0.711673
Spine1  1.11277 -0.711701 0.348454
HEad  3.41182 4.81891 -5.03806
LeftShoulder1  1.5581 -0.845274 -29.764
LeftArm  4.80169 -18.1541 -23.4813
LeftForeArm  -1.08741 -14.3949 -11.8692
LeftHand  0.0758398 -1.0328 -1.27692
RightShoulder  9.28852 11.9422 52.6129
RightArm  9.456 2.15927 12.9255
RightForeArm  18.7712 -4.80343 17.6379
RightHand  0.267238 4.57639 2.81938
LeftUpLeg  11.0885 14.2986 6.42582
LeftLeg  13.4329 9.61444 0.786924
LeftFoot  -17.0802 -0.657963 -15.0858
LeftToes  -2.73175e-012 1.00346e-010 -4.28452e-011
612
root  -5.08811 38.8476 -44.2303 179.496 -24.114 -178.532
RightUpLeg  -20.3213 -4.69657 1.69641
RightLeg  9.57168 -13.9564 1.20619
RightFoot  7.15126 0.583177 -3.2781
RightToes  -1.33073e-015 0 -3.6325e-017
Spine  7.99275 -0.778986 3.05195
Spine1  0.235964 -0.845955 0.651571
HEad  2.92729 4.69019 -6.03516
LeftShoulder1  1.53331 -0.711975 -30.3146
LeftArm  10.8782 -15.5633 -23.3496
LeftForeArm  -4.99775 -17.1509 -9.9838
LeftHand  0.0648165 -1.03422 -1.07614
RightShoulder  9.20507 11.6412 53.1587
RightArm  10.0278 1.93892 12.6466
RightForeArm  19.1582 -4.44772 17.7657
RightHand  0.336336 4.6186 3.60462
LeftUpLeg  11.3492 16.947 9.58658
LeftLeg  19.2501 6.57497 2.87475
LeftFoot  -16.3191 -0.815241 -20.7848
LeftToes  -2.73175e-012 1.00346e-010 -4.28452e-011
613
root  -5.26906 38.6934 -45.4692 178.984 -23.3542 -177.257
RightUpLeg  -21.1859 -7.32184 4.36586
RightLeg  15.0841 -10.7232 0.350251
RightFoot  3.40857 0.568236 -4.2056
RightToes  -1.33073e-015 0 -3.6325e-017
Spine  8.27189 -1.16135 4.48328
Spine1  0.125112 -1.24429 2.22156
HEad  2.58888 4.59193 -6.49662
LeftShoulder1  1.52608 -0.649152 -30.694
LeftArm  14.9068 -12.4491 -24.2581
LeftForeArm  -6.87635 -18.6282 -8.80827
LeftHand  0.0538665 -1.08976 -0.864035
RightShoulder  9.54642 12.1424 53.3538
RightArm  8.25711 1.19223 12.3347
RightForeArm  20.6772 -4.79629 17.5453
RightHand  0.431914 4.73538 4.64842
LeftUpLeg  7.86677 13.8409 10.9898
LeftLeg  29.0603 8.68987 5.53322
LeftFoot  -12.2527 -0.147798 -27.2408
LeftToes  -2.73175e-012 1.00346e-010 -4.28452e-011
614
root  -5.41629 38.5795 -46.5916 178.744 -23.1373 -175.962
RightUpLeg  -21.1202 -6.94577 5.71691
RightLeg  18.1774 -11.164 0.212697
RightFoot  0.20722 0.421558 -4.15001
RightToes  -1.33073e-015 0 -3.6325e-017
Spine  8.39378 -1.53853 5.92764
Spine1  0.14012 -1.61781 3.94025
HEad  2.19057 3.84531 -6.14927
LeftShoulder1  1.52738 -0.683913 -30.4176
LeftArm  17.0597 -9.80115 -26.5502
LeftForeArm  -6.90141 -18.5278 -8.9394
LeftHand  0.0694735 -1.2762 -1.095
RightShoulder  9.00334 11.3479 53.0269
RightArm  8.65426 1.66628 12.7277
RightForeArm  20.0541 -4.71896 17.61
RightHand  0.493761 4.6873 5.38385
LeftUpLeg  1.9571 10.584 11.8789
LeftLeg  40.263 9.26197 8.68006
LeftFoot  -2.35009 1.72322 -21.5144
LeftToes  -2.73175e-012 1.00346e-010 -4.28452e-011
615
root  -5.59003 38.3855 -47.6022 178.179 -22.5583 -174.466
RightUpLeg  -20.9757 -6.13772 7.31666
RightLeg  21.3927 -11.4059 -0.286261
RightFoot  -2.93486 0.25585 -3.74831
RightToes  -1.33073e-015 0 -3.6325e-017
Spine  8.97821 -1.70383 8.36938
Spine1  0.077109 -1.43982 4.72733
HEad  1.75027 2.66695 -5.3933
LeftShoulder1  1.53893 -0.727085 -30.3179
LeftArm  19.102 -8.27812 -28.9578
LeftForeArm  -6.23092 -17.5445 -9.90738
LeftHand  0.122394 -1.73296 -1.84928
RightShoulder  8.82381 11.1485 52.6897
RightArm  9.57302 1.25411 12.935
RightForeArm  18.1071 -4.70742 17.7122
RightHand  0.504042 4.59032 5.56175
LeftUpLeg  -4.10464 8.01056 12.8386
LeftLeg  50.0493 7.00613 9.30184
LeftFoot  10.1716 1.38177 -7.59409
LeftToes  -2.73175e-012 1.00346e-010 -4.28452e-011
616
root  -5.79521 38.4211 -48.6838 177.862 -21.2299 -174.177
RightUpLeg  -19.3081 -4.84347 7.85255
RightLeg  22.4082 -11.3684 -0.403668
RightFoot  -5.12736 0.149452 -3.39017
RightToes  -1.33073e-015 0 -3.6325e-017
Spine  9.47603 -1.49689 9.58261
Spine1  -0.0618722 -0.890042 4.58983
HEad  1.46194 1.78659 -4.41667
LeftShoulder1  1.56078 -0.739457 -30.7312
LeftArm  21.7816 -7.1943 -30.6094
LeftForeArm  -4.93715 -16.3956 -11.0384
LeftHand  0.230134 -2.35191 -3.26882
RightShoulder  8.94751 11.3565 52.6796
RightArm  11.7122 1.40332 12.8358
RightForeArm  16.5801 -4.04028 17.9481
RightHand  0.486343 4.67517 5.30589
LeftUpLeg  -8.54439 6.35683 12.8937
LeftLeg  56.7874 2.85927 5.20058
LeftFoot  7.7585 1.57548 -9.62979
LeftToes  -2.73175e-012 1.00346e-010 -4.28452e-011
617
root  -6.00955 38.5807 -49.7968 177.816 -19.6575 -174.776
RightUpLeg  -16.904 -3.80693 7.62214
RightLeg  22.1852 -10.8689 -0.196318
RightFoot  -6.81417 0.080091 -3.19052
RightToes  -1.33073e-015 0 -3.6325e-017
Spine  9.69221 -1.20113 9.82405
Spine1  -0.1921 -0.359746 4.02443
HEad  1.40203 1.41294 -3.62528
LeftShoulder1  1.58101 -0.72158 -31.3701
LeftArm  24.9237 -5.78532 -31.707
LeftForeArm  -3.17228 -15.5478 -11.864
LeftHand  0.348581 -3.01025 -4.59871
RightShoulder  9.30341 11.9354 52.7172
RightArm  12.1184 2.24066 12.8282
RightForeArm  18.1547 -3.99764 17.9066
RightHand  0.467457 4.92613 4.94895
LeftUpLeg  -12.2664 5.20117 11.6903
LeftLeg  60.4062 -0.25391 0.0696702
LeftFoot  6.11534 1.46074 -9.74035
LeftToes  -2.73175e-012 1.00346e-010 -4.28452e-011
618
root  -6.2425 38.7532 -50.9168 177.989 -17.9068 -175.422
RightUpLeg  -14.4219 -3.05245 7.49293
RightLeg  21.3537 -9.9523 -0.0797899
RightFoot  -8.19065 0.0265696 -2.97897
RightToes  -1.33073e-015 0 -3.6325e-017
Spine  9.53464 -0.875403 10.2446
Spine1  -0.446313 0.183082 2.95611
HEad  1.62701 1.61414 -3.42999
LeftShoulder1  1.58529 -0.680238 -31.8433
LeftArm  28.4821 -3.63848 -32.7198
LeftForeArm  -2.81663 -15.3456 -12.179
LeftHand  0.44538 -3.33974 -5.68625
RightShoulder  9.61926 12.5683 52.368
RightArm  12.097 3.13839 13.2422
RightForeArm  19.0175 -3.74252 17.8397
RightHand  0.449316 5.0058 4.70407
LeftUpLeg  -15.7426 4.14927 10.2774
LeftLeg  61.5056 -1.01188 -1.45523
LeftFoot  4.48481 1.47021 -10.7504
LeftToes  -2.73175e-012 1.00346e-010 -4.28452e-011
